<svg id="visual" viewBox="0 0 900 600" width="900" height="600" xmlns="http://www.w3.org/2000/svg" xmlns:xlink="http://www.w3.org/1999/xlink" version="1.1"><path d="M0 67L82 67L164 97L245 61L327 157L409 49L491 145L573 91L655 61L736 145L818 121L900 145L900 0L818 0L736 0L655 0L573 0L491 0L409 0L327 0L245 0L164 0L82 0L0 0Z" fill="#00cc8e"></path><path d="M0 199L82 241L164 223L245 217L327 241L409 145L491 397L573 337L655 187L736 313L818 277L900 247L900 143L818 119L736 143L655 59L573 89L491 143L409 47L327 155L245 59L164 95L82 65L0 65Z" fill="#00b98a"></path><path d="M0 265L82 325L164 271L245 295L327 337L409 217L491 439L573 403L655 277L736 415L818 313L900 337L900 245L818 275L736 311L655 185L573 335L491 395L409 143L327 239L245 215L164 221L82 239L0 197Z" fill="#00a784"></path><path d="M0 475L82 535L164 559L245 529L327 529L409 475L491 517L573 499L655 487L736 535L818 475L900 493L900 335L818 311L736 413L655 275L573 401L491 437L409 215L327 335L245 293L164 269L82 323L0 263Z" fill="#00957c"></path><path d="M0 601L82 601L164 601L245 601L327 601L409 601L491 601L573 601L655 601L736 601L818 601L900 601L900 491L818 473L736 533L655 485L573 497L491 515L409 473L327 527L245 527L164 557L82 533L0 473Z" fill="#038373"></path></svg>